#!OML:ASF F:\VICON\USERDATA\INSTALL\rory3\rory3.ASF
:FULLY-SPECIFIED
:DEGREES
1
root 4.40047 17.8934 -21.098599999999994 -0.9439649999999968 -8.379630000000006 -7.426120000000008
lfemur -27.993600000000022 -4.464379999999997 -9.049250000000017
ltibia 22.560799999999986
lfoot -6.360630000000002 8.24507000000001
ltoes 1.091769999999995
rfemur 3.6367399999999925 10.100299999999994 34.51220000000001
rtibia 25.693399999999976
rfoot -20.962199999999974 -4.012250000000003
rtoes 5.061519999999999
lowerback nan 1.604790000000001 4.40928
upperback 0.47251000000000004 2.84449 2.261570000000001
thorax -5.863599999999999 1.3042400000000014 -0.5691290000000007
lowerneck -15.945599999999999 -3.559110000000001 -2.36067
upperneck 19.9076 -4.57025 1.0358900000000004
head 8.94923 -2.2128900000000002 0.17877699999999982
lclavicle -3.224039999999997e-15 1.7890600000000006e-14
lhumerus -35.90229999999999 4.6676599999999935 83.7329
lradius 27.8853
lwrist 5.298730000000002
lhand -24.5852 29.629800000000003
lfingers nan
lthumb 1.9121900000000023 59.600899999999996
rclavicle -3.224039999999997e-15 1.7890600000000006e-14
rhumerus -22.14570000000001 -10.419100000000006 -82.5993
rradius 31.043000000000006
rwrist -1.1002599999999934
rhand -18.32 nan
rfingers nan
rthumb 7.961449999999999 -6.176589999999999
2
root 4.43348 17.8319 -20.401799999999984 -1.038679999999997 -8.59655000000001 -7.384830000000008
lfemur -27.22469999999997 -5.879220000000006 -8.409110000000018
ltibia 16.444200000000023
lfoot -6.395989999999998 8.3441
ltoes 1.2514599999999882
rfemur 6.188870000000044 10.181099999999994 34.559
rtibia 25.81379999999998
rfoot -21.20589999999999 -4.355689999999999
rtoes 2.177139999999998
lowerback nan 1.81323 4.339580000000006
upperback 0.8288779999999993 3.104610000000003 2.2665100000000002
thorax -5.577279999999999 1.4431300000000014 -0.5661190000000027
lowerneck -16.4796 -3.6038399999999995 -2.1637
upperneck 19.7408 -4.599410000000001 0.745688
head 8.97693 -2.2395600000000004 0.03625489999999998
lclavicle 3.665089999999997e-15 -1.4511300000000005e-14
lhumerus -35.983 3.4508099999999997 84.7055
lradius 27.2424
lwrist 6.23318
lhand -26.3977 27.6734
lfingers nan
lthumb 0.16161499999999943 57.653099999999995
rclavicle 3.665089999999997e-15 -1.4511300000000005e-14
rhumerus -21.041000000000004 -10.385000000000005 -82.5505
rradius 31.780999999999995
rwrist -1.6133599999999975
rhand -17.9026 nan
rfingers nan
rthumb 8.36433 -5.101889999999999
3
root 4.48792 17.7512 -19.66409999999998 -0.720349000000001 -8.584559999999994 -7.276549999999988
lfemur -26.747499999999967 -6.3544700000000045 -8.63852
ltibia 13.887700000000034
lfoot -5.727489999999999 7.802700000000009
ltoes -1.5276999999999967
rfemur 7.22841999999995 10.114100000000011 34.172599999999996
rtibia 27.976499999999987
rfoot -20.982599999999977 -3.706199999999996
rtoes 1.8626900000000028
lowerback nan 1.8581199999999973 4.447010000000002
upperback 0.489607 3.1853099999999945 2.198489999999999
thorax -5.86627 1.469460000000001 -0.7126709999999994
lowerneck -15.563900000000002 -3.664819999999999 -2.3348
upperneck 19.6555 -4.69201 0.8815219999999997
head 8.79084 -2.2880100000000008 0.11684500000000012
lclavicle 3.186769999999997e-15 -2.1866300000000056e-14
lhumerus -36.703199999999995 2.8524799999999955 85.04
lradius 26.673000000000002
lwrist 6.08407
lhand -26.3562 32.6093
lfingers nan
lthumb 0.20175500000000016 62.58890000000001
rclavicle 3.186769999999997e-15 -2.1866300000000056e-14
rhumerus -21.29489999999999 -10.142200000000013 -82.3848
rradius 32.12109999999999
rwrist -1.8856299999999964
rhand -18.5765 nan
rfingers nan
rthumb 7.713890000000001 -5.460470000000001
4
root 4.544740000000001 17.7593 -18.868599999999933 -0.8545030000000029 -8.55526999999999 -7.326449999999992
lfemur -27.179200000000048 -3.9112499999999972 -10.434700000000024
ltibia 19.361299999999982
lfoot -8.5936 6.202270000000013
ltoes 5.561570000000008
rfemur 8.777409999999978 9.70309000000001 33.88760000000002
rtibia 30.24129999999999
rfoot -18.77610000000002 -2.077999999999995
rtoes -1.165960000000008
lowerback nan 1.9446800000000002 4.74453
upperback 0.972583 3.2743200000000043 2.1531999999999996
thorax -5.025079999999999 1.531010000000002 -0.9069590000000001
lowerneck -16.6957 -3.719500000000001 -2.16545
upperneck 20.3555 -4.787480000000002 0.8394600000000001
head 9.23429 -2.31273 0.033880500000000036
lclavicle -2.405919999999997e-14 6.7586800000000146e-15
lhumerus -35.9249 3.7311399999999937 84.4333
lradius 25.499900000000007
lwrist 2.829249999999996
lhand -26.1667 24.6035
lfingers nan
lthumb 0.38475000000000004 54.5829
rclavicle -2.405919999999997e-14 6.7586800000000146e-15
rhumerus -20.360499999999984 -11.343100000000005 -82.1832
rradius 31.4052
rwrist -0.5938350000000012
rhand -18.4257 nan
rfingers nan
rthumb 7.85951 -5.857539999999999
